<?xml version="1.0" standalone="no"?><svg xmlns="http://www.w3.org/2000/svg" viewBox="0 0 1440 320"><path fill="#0099ff" fill-opacity="1" d="M0,32L13.3,58.7C26.7,85,53,139,80,138.7C106.7,139,133,85,160,90.7C186.7,96,213,160,240,165.3C266.7,171,293,117,320,133.3C346.7,149,373,235,400,229.3C426.7,224,453,128,480,112C506.7,96,533,160,560,181.3C586.7,203,613,181,640,192C666.7,203,693,245,720,250.7C746.7,256,773,224,800,192C826.7,160,853,128,880,117.3C906.7,107,933,117,960,133.3C986.7,149,1013,171,1040,154.7C1066.7,139,1093,85,1120,106.7C1146.7,128,1173,224,1200,218.7C1226.7,213,1253,107,1280,90.7C1306.7,75,1333,149,1360,154.7C1386.7,160,1413,96,1427,64L1440,32L1440,0L1426.7,0C1413.3,0,1387,0,1360,0C1333.3,0,1307,0,1280,0C1253.3,0,1227,0,1200,0C1173.3,0,1147,0,1120,0C1093.3,0,1067,0,1040,0C1013.3,0,987,0,960,0C933.3,0,907,0,880,0C853.3,0,827,0,800,0C773.3,0,747,0,720,0C693.3,0,667,0,640,0C613.3,0,587,0,560,0C533.3,0,507,0,480,0C453.3,0,427,0,400,0C373.3,0,347,0,320,0C293.3,0,267,0,240,0C213.3,0,187,0,160,0C133.3,0,107,0,80,0C53.3,0,27,0,13,0L0,0Z"></path></svg>